<svg width="28" height="20" viewBox="0 0 28 20" fill="none" xmlns="http://www.w3.org/2000/svg">
<path d="M16.6997 5.86876V5.94807C16.2271 6.02738 15.7545 6.18599 15.2818 6.42392C14.179 4.75845 12.2885 3.80676 10.2404 3.80676C6.85319 3.80676 4.17493 6.58253 4.17493 9.91345C4.17493 10.2307 4.17493 10.5479 4.2537 10.9445C1.89054 11.0238 0 13.0065 0 15.3857C0 17.8442 1.96931 19.8269 4.41125 19.8269H20.7171C23.1591 19.8269 25.1284 17.8442 25.1284 15.3857C25.1284 13.4823 23.9468 11.8168 22.2138 11.1824C22.2138 11.0238 22.2138 10.8651 22.2138 10.7858V10.7065C22.2138 10.2307 22.135 9.83415 22.0562 9.3583C21.5048 7.53422 19.9294 6.10669 18.0389 5.86876C17.8025 5.86876 17.645 5.86876 17.4087 5.86876C17.0936 5.86876 16.8573 5.86876 16.621 5.94807L16.6997 5.86876ZM23.868 15.3857C23.868 17.1305 22.4501 18.558 20.7171 18.558H4.41125C2.67826 18.558 1.26036 17.1305 1.26036 15.3857C1.26036 13.6409 2.67826 12.2134 4.41125 12.2134H5.9867L5.67161 11.341C5.51406 10.8651 5.43529 10.3893 5.43529 9.91345C5.43529 7.2963 7.56214 5.07569 10.2404 5.07569C11.9734 5.07569 13.6276 6.02738 14.4153 7.61353L14.8092 8.3273L15.4394 7.85145C15.7545 7.61353 16.1483 7.45492 16.5422 7.2963C16.8573 7.21699 17.1724 7.13768 17.5662 7.13768C17.645 7.13768 17.8025 7.13768 17.8813 7.13768C19.2992 7.2963 20.4808 8.3273 20.8747 9.75484C20.9534 10.0721 20.9534 10.31 20.9534 10.6272C20.9534 10.7858 20.9534 10.9445 20.9534 11.1031C20.9534 11.2617 20.9534 11.341 20.8747 11.4996L20.7171 12.1341L21.4261 12.2927C22.844 12.6099 23.868 13.8788 23.868 15.3857Z" fill="#00A8BF"/>
<path fill-rule="evenodd" clip-rule="evenodd" d="M20.5596 4.28261C22.0563 4.28261 23.3166 5.55154 23.3166 7.05838C23.3166 8.01008 22.844 8.88246 22.0563 9.35831C22.135 9.75484 22.2138 10.2307 22.2138 10.7065V10.7858C22.4501 10.7065 22.6864 10.5479 22.9228 10.3893L24.1043 11.5789C24.2619 11.7375 24.4194 11.7375 24.577 11.7375C24.7345 11.7375 24.8921 11.6582 25.0496 11.5789C25.2859 11.341 25.2859 10.8652 25.0496 10.6272L23.868 9.43761C24.2619 8.96177 24.4982 8.32731 24.577 7.69284H26.9402C27.334 7.69284 27.5703 7.37561 27.5703 7.05838C27.5703 6.66184 27.2552 6.42392 26.9402 6.42392H24.577C24.4982 5.78946 24.2619 5.23431 23.868 4.67915L25.0496 3.48954C25.2859 3.25161 25.2859 2.77577 25.0496 2.53785C24.8133 2.29992 24.3407 2.29992 24.1043 2.53785L22.9228 3.72746C22.4501 3.33092 21.82 3.093 21.1898 3.01369V0.634461C21.1898 0.237923 20.8747 0 20.5596 0C20.1657 0 19.9294 0.317231 19.9294 0.634461V3.01369C19.2992 3.093 18.7478 3.33092 18.1964 3.72746L17.0148 2.53785C16.7785 2.29992 16.3059 2.29992 16.0696 2.53785C15.8333 2.77577 15.8333 3.25161 16.0696 3.48954L17.2512 4.67915C17.0148 5.07569 16.7785 5.47223 16.621 5.94808C16.8573 5.86877 17.1724 5.86877 17.4087 5.86877C17.645 5.86877 17.8026 5.86877 18.0389 5.86877C18.5115 4.91708 19.4568 4.28261 20.5596 4.28261Z" fill="#F2C14E"/>
</svg>
