<svg width="23" height="23" viewBox="0 0 23 23" fill="none" xmlns="http://www.w3.org/2000/svg">
<path d="M8.98535 1.71277H2.58483C2.33865 1.71277 2.09248 1.83511 1.96939 1.95745C1.8463 2.07979 1.72322 2.32447 1.72322 2.56915V20.4309C1.72322 20.6755 1.8463 20.9202 1.96939 21.0426C2.09248 21.1649 2.33865 21.2872 2.58483 21.2872H8.98535C9.23152 21.2872 9.4777 21.1649 9.60078 21.0426C9.72387 20.9202 9.84696 20.6755 9.84696 20.4309V2.56915C9.84696 2.32447 9.72387 2.07979 9.60078 1.95745C9.4777 1.83511 9.23152 1.71277 8.98535 1.71277ZM2.58483 0H8.98535C9.72387 0 10.3393 0.244681 10.8317 0.734043C11.324 1.2234 11.5702 1.83511 11.5702 2.56915V20.4309C11.5702 21.1649 11.324 21.7766 10.8317 22.266C10.3393 22.7553 9.72387 23 8.98535 23H2.58483C1.8463 23 1.23087 22.7553 0.738522 22.266C0.246174 21.7766 0 21.1649 0 20.4309V2.56915C0 1.83511 0.246174 1.2234 0.738522 0.734043C1.23087 0.244681 1.8463 0 2.58483 0Z" fill="#00BFA5"/>
<path d="M14.4012 15.5373C15.1397 15.1703 15.632 14.5586 16.1244 13.8245C16.4936 13.0905 16.7398 12.3565 16.7398 11.5001C16.7398 10.6437 16.4936 9.90965 16.1244 9.1756C15.7551 8.44156 15.1397 7.9522 14.4012 7.46284L15.2628 5.99475C16.2475 6.60645 16.986 7.3405 17.6014 8.31922C18.0938 9.29794 18.463 10.2767 18.463 11.5001C18.463 12.6011 18.2169 13.7022 17.6014 14.6809C17.1091 15.6596 16.2475 16.3937 15.2628 17.0054L14.4012 15.5373Z" fill="#00BFA5"/>
<path d="M15.7551 20.4309C17.3553 19.5745 18.5861 18.2287 19.5708 16.6383C20.4324 15.0479 20.9248 13.3351 20.9248 11.5C20.9248 9.6649 20.4324 7.95214 19.5708 6.36171C18.7092 4.77129 17.3553 3.54788 15.7551 2.56916L16.6167 1.10107C18.463 2.20214 19.9401 3.67022 21.0479 5.50533C22.0326 7.34044 22.648 9.29788 22.648 11.5C22.648 13.5798 22.0326 15.6596 21.0479 17.4947C20.0632 19.3298 18.463 20.7979 16.6167 21.8989L15.7551 20.4309Z" fill="#00BFA5"/>
<path d="M5.78508 16.516C6.53285 16.516 7.13904 15.9134 7.13904 15.1702C7.13904 14.427 6.53285 13.8245 5.78508 13.8245C5.03731 13.8245 4.43112 14.427 4.43112 15.1702C4.43112 15.9134 5.03731 16.516 5.78508 16.516Z" fill="#00BFA5"/>
</svg>
