<svg width="25" height="26" viewBox="0 0 25 26" fill="none" xmlns="http://www.w3.org/2000/svg">
<path fill-rule="evenodd" clip-rule="evenodd" d="M23.2418 8.0684H19.7254V21.5077V21.5318C19.7254 22.0135 19.9181 22.4229 20.2312 22.736C20.5202 23.025 20.9056 23.2177 21.3391 23.2418H21.3632C21.3873 23.2418 21.3873 23.2418 21.4114 23.2418H21.4355H21.4595H21.4836C21.9653 23.2418 22.3988 23.0491 22.7119 22.736C23.025 22.4229 23.2177 21.9894 23.2177 21.5077V8.0684H23.2418ZM15.2457 18.738C15.7514 18.738 16.1368 19.1474 16.1368 19.6291C16.1368 20.1349 15.7274 20.5202 15.2457 20.5202H4.50385C3.99807 20.5202 3.61272 20.1108 3.61272 19.6291C3.61272 19.1233 4.02216 18.738 4.50385 18.738H15.2457ZM15.2457 15.1734C15.7514 15.1734 16.1368 15.5829 16.1368 16.0645C16.1368 16.5703 15.7274 16.9557 15.2457 16.9557H4.50385C3.99807 16.9557 3.61272 16.5462 3.61272 16.0645C3.61272 15.5588 4.02216 15.1734 4.50385 15.1734H15.2457ZM15.2457 11.6089C15.7514 11.6089 16.1368 12.0183 16.1368 12.5C16.1368 13.0058 15.7274 13.3911 15.2457 13.3911H4.50385C3.99807 13.3911 3.61272 12.9817 3.61272 12.5C3.61272 11.9942 4.02216 11.6089 4.50385 11.6089H15.2457ZM15.2457 8.04432C15.7514 8.04432 16.1368 8.45376 16.1368 8.93545C16.1368 9.44123 15.7274 9.82659 15.2457 9.82659H4.50385C3.99807 9.82659 3.61272 9.41715 3.61272 8.93545C3.61272 8.42967 4.02216 8.04432 4.50385 8.04432H15.2457ZM12.9335 3.61272C13.4393 3.61272 13.8247 4.02216 13.8247 4.50385C13.8247 5.00963 13.4152 5.39499 12.9335 5.39499H6.79191C6.28613 5.39499 5.90077 4.98555 5.90077 4.50385C5.90077 3.99807 6.31021 3.61272 6.79191 3.61272H12.9335ZM18.8102 25.0241H3.56455C2.57707 25.0241 1.71002 24.6387 1.05973 23.9884C0.409441 23.3382 0 22.4711 0 21.4836V0.891137V0H0.891137H6.21387H18.8102H19.7013V0.891137V6.26204H24.1089H25V7.15318V21.4836C25 22.447 24.5906 23.3382 23.9644 23.9884C23.3141 24.6387 22.4229 25.0241 21.4595 25.0241H18.8102Z" fill="#A9A9A9"/>
</svg>
