<svg width="34" height="34" viewBox="0 0 34 34" fill="none" xmlns="http://www.w3.org/2000/svg">
<path d="M23.0991 6.44214H10.9009C8.4423 6.44214 6.44214 8.44236 6.44214 10.9009V23.0992C6.44214 25.5577 8.44236 27.5579 10.9009 27.5579H23.0992C25.5577 27.5579 27.5579 25.5577 27.5579 23.0992V10.9009C27.5579 8.4423 25.5577 6.44214 23.0991 6.44214ZM26.4842 23.0991C26.4842 24.9656 24.9656 26.4842 23.0991 26.4842H10.9009C9.03437 26.4842 7.51579 24.9656 7.51579 23.0991V10.9009C7.51579 9.03437 9.03437 7.5158 10.9009 7.5158H23.0992C24.9657 7.5158 26.4843 9.03437 26.4843 10.9009V23.0991H26.4842Z" fill="#818181"/>
<path d="M22.5384 16.6826C22.3797 13.8581 20.0813 11.5859 17.2553 11.4585C13.9942 11.3114 11.3096 13.9973 11.4586 17.2588C11.5877 20.085 13.8618 22.3823 16.6866 22.5387C17.8786 22.6048 18.995 22.2912 19.9274 21.7091C20.2179 21.5277 20.2652 21.1238 20.0231 20.8817C20.0205 20.8791 20.018 20.8766 20.0155 20.8741C19.839 20.6976 19.5654 20.6709 19.3533 20.8027C18.6567 21.2356 17.8332 21.4827 16.9522 21.4735C14.465 21.4474 12.4581 19.3589 12.5282 16.8725C12.5986 14.3702 14.7338 12.3754 17.2866 12.5354C19.4864 12.6732 21.277 14.4273 21.4582 16.6239C21.532 17.5188 21.3395 18.3642 20.9529 19.0914C20.8422 19.2996 20.8763 19.555 21.043 19.7218C21.0458 19.7245 21.0485 19.7273 21.0513 19.73C21.3018 19.9806 21.7256 19.9217 21.893 19.6094C22.3566 18.7444 22.5981 17.7435 22.5384 16.6826Z" fill="#818181"/>
<path d="M22.7263 11.9895C23.5169 11.9895 24.1579 11.3485 24.1579 10.5579C24.1579 9.76722 23.5169 9.12628 22.7263 9.12628C21.9356 9.12628 21.2947 9.76722 21.2947 10.5579C21.2947 11.3485 21.9356 11.9895 22.7263 11.9895Z" fill="#818181"/>
</svg>
