<svg width="25" height="25" viewBox="0 0 25 25" fill="none" xmlns="http://www.w3.org/2000/svg">
<path d="M19.0199 1.82421H5.93854V6.79934V12.3964L12.5 17.1642L19.0615 12.3964V6.79934V1.82421H19.0199ZM25 9.82587V11.2769V22.471C25 23.1758 24.7093 23.7977 24.2525 24.2537C23.7957 24.7098 23.1728 25 22.4668 25H2.53322C1.82724 25 1.20432 24.7098 0.747508 24.2537C0.290698 23.7977 0 23.1758 0 22.471V9.82587V9.36982L0.373754 9.0796L4.15282 6.30182V0.912106V0H5.06645H19.9336H20.8472V0.912106V6.30182L24.6262 9.0796L25 9.36982V9.82587ZM4.15282 8.54063L2.40864 9.82587L4.15282 11.1111V8.58209V8.54063ZM20.8472 11.0697L22.5914 9.78441L20.8472 8.49917V11.0282V11.0697Z" fill="#A9A9A9"/>
<path d="M9.09467 6.59203C9.09467 5.63847 9.46842 4.80928 10.0913 4.18739C10.7143 3.5655 11.5448 3.19236 12.5 3.19236C13.4551 3.19236 14.2857 3.5655 14.9086 4.18739C15.5315 4.80928 15.9053 5.63847 15.9053 6.59203C15.9053 7.87727 15.1993 8.665 14.4933 9.49419C13.9535 10.1161 13.4136 10.7794 13.3721 11.5672L11.5864 11.5257C11.5864 10.0746 12.3754 9.16251 13.1229 8.29187C13.6212 7.71144 14.0781 7.17246 14.0781 6.55057C14.0781 6.09452 13.9119 5.72139 13.6212 5.43117C13.3305 5.14095 12.9153 4.97512 12.5 4.97512C12.0432 4.97512 11.6694 5.14095 11.3787 5.43117C11.088 5.72139 10.9219 6.13598 10.9219 6.55057H9.13619L9.09467 6.59203Z" fill="#A9A9A9"/>
<path d="M12.5 14.5522C13.0046 14.5522 13.4136 14.1438 13.4136 13.6401C13.4136 13.1364 13.0046 12.728 12.5 12.728C11.9954 12.728 11.5864 13.1364 11.5864 13.6401C11.5864 14.1438 11.9954 14.5522 12.5 14.5522Z" fill="#A9A9A9"/>
</svg>
