<svg width="14" height="23" viewBox="0 0 14 23" fill="none" xmlns="http://www.w3.org/2000/svg">
<path d="M6.83666 8.198C7.5918 8.198 8.20396 7.58627 8.20396 6.83167C8.20396 6.07706 7.5918 5.46533 6.83666 5.46533C6.08152 5.46533 5.46936 6.07706 5.46936 6.83167C5.46936 7.58627 6.08152 8.198 6.83666 8.198Z" fill="#A9A9A9"/>
<path d="M6.83649 0C8.65956 0 10.4826 0.683168 11.622 2.0495C12.9893 3.41584 13.673 5.0099 13.673 6.83168C13.673 8.65346 12.9893 10.4752 11.622 11.6138C10.2547 12.9802 8.65956 13.6634 6.83649 13.6634C5.01343 13.6634 3.19036 12.9802 2.05095 11.6138C0.683649 10.2475 0 8.65346 0 6.83168C0 5.0099 0.683649 3.18812 2.05095 2.0495C3.41825 0.683168 5.01343 0 6.83649 0ZM10.4826 3.18812C9.57109 2.27723 8.20379 1.59406 6.83649 1.59406C5.4692 1.59406 4.1019 2.27723 3.19036 3.18812C2.27883 4.09901 1.59518 5.46534 1.59518 6.83168C1.59518 8.19801 2.27883 9.56435 3.19036 10.4752C4.1019 11.3861 5.4692 12.0693 6.83649 12.0693C8.20379 12.0693 9.57109 11.3861 10.4826 10.4752C11.3942 9.56435 12.0778 8.19801 12.0778 6.83168C12.0778 5.46534 11.3942 4.09901 10.4826 3.18812Z" fill="#A9A9A9"/>
<path d="M6.15302 12.9802C6.15302 12.5248 6.60878 12.0693 7.06455 12.0693C7.52031 12.0693 7.97608 12.5248 7.97608 12.9802V22.0891C7.97608 22.5446 7.52031 23 7.06455 23C6.60878 23 6.15302 22.5446 6.15302 22.0891V12.9802Z" fill="#A9A9A9"/>
</svg>
