<svg width="33" height="31" viewBox="0 0 33 31" fill="none" xmlns="http://www.w3.org/2000/svg">
<path d="M1 19.7273V27.2424H20.7647V19.7273" stroke="#2F3E46"/>
<path d="M20.7647 20.197C20.7647 14.7495 16.3402 10.3334 10.8824 10.3334C5.42448 10.3334 1 14.7495 1 20.197" stroke="#2F3E46"/>
<path d="M17.4411 7.51515C17.4411 11.3886 14.2949 14.5303 10.4117 14.5303C6.52861 14.5303 3.38232 11.3886 3.38232 7.51515C3.38232 3.64168 6.52861 0.5 10.4117 0.5C14.2949 0.5 17.4411 3.64168 17.4411 7.51515Z" fill="white" stroke="#2F3E46"/>
<path d="M5.23535 27.2424V23.4849" stroke="#2F3E46"/>
<mask id="path-5-inside-1" fill="white">
<path fill-rule="evenodd" clip-rule="evenodd" d="M21.2353 12.2727C21.2353 11.7204 21.683 11.2727 22.2353 11.2727H24C24.5523 11.2727 25 11.7204 25 12.2727V13.3738C25.7858 13.5629 26.5264 13.8678 27.2026 14.2694L28.0003 13.4732C28.3912 13.083 29.025 13.083 29.4159 13.4732L30.7955 14.8502C31.1864 15.2403 31.1864 15.8729 30.7955 16.2631L29.9977 17.0593C30.4 17.7342 30.7054 18.4733 30.8949 19.2575H32.0001C32.5523 19.2575 33.0001 19.7053 33.0001 20.2575V22.0151C33.0001 22.5674 32.5523 23.0151 32.0001 23.0151H30.8949C30.7054 23.7993 30.4 24.5384 29.9977 25.2133L30.7955 26.0096C31.1864 26.3998 31.1864 27.0323 30.7955 27.4225L29.4159 28.7995C29.025 29.1896 28.3912 29.1896 28.0004 28.7995L27.2026 28.0032C26.5264 28.4048 25.7858 28.7097 25 28.8989V30C25 30.5523 24.5523 31 24 31H22.2353C21.683 31 21.2353 30.5523 21.2353 30V28.8989C20.4496 28.7098 19.7091 28.4049 19.0329 28.0033L18.2353 28.7995C17.8444 29.1896 17.2106 29.1896 16.8197 28.7995L15.4401 27.4225C15.0492 27.0323 15.0492 26.3998 15.4401 26.0096L16.2377 25.2135C15.8354 24.5386 15.5299 23.7994 15.3404 23.0151H14.2354C13.6831 23.0151 13.2354 22.5674 13.2354 22.0151V20.2575C13.2354 19.7053 13.6831 19.2576 14.2354 19.2576H15.3404C15.5299 18.4732 15.8354 17.7341 16.2377 17.0591L15.4402 16.2631C15.0493 15.8729 15.0493 15.2403 15.4401 14.8502L16.8197 13.4732C17.2106 13.0831 17.8444 13.0831 18.2353 13.4732L19.0329 14.2693C19.7091 13.8678 20.4496 13.5629 21.2353 13.3738V12.2727Z"/>
</mask>
<path fill-rule="evenodd" clip-rule="evenodd" d="M21.2353 12.2727C21.2353 11.7204 21.683 11.2727 22.2353 11.2727H24C24.5523 11.2727 25 11.7204 25 12.2727V13.3738C25.7858 13.5629 26.5264 13.8678 27.2026 14.2694L28.0003 13.4732C28.3912 13.083 29.025 13.083 29.4159 13.4732L30.7955 14.8502C31.1864 15.2403 31.1864 15.8729 30.7955 16.2631L29.9977 17.0593C30.4 17.7342 30.7054 18.4733 30.8949 19.2575H32.0001C32.5523 19.2575 33.0001 19.7053 33.0001 20.2575V22.0151C33.0001 22.5674 32.5523 23.0151 32.0001 23.0151H30.8949C30.7054 23.7993 30.4 24.5384 29.9977 25.2133L30.7955 26.0096C31.1864 26.3998 31.1864 27.0323 30.7955 27.4225L29.4159 28.7995C29.025 29.1896 28.3912 29.1896 28.0004 28.7995L27.2026 28.0032C26.5264 28.4048 25.7858 28.7097 25 28.8989V30C25 30.5523 24.5523 31 24 31H22.2353C21.683 31 21.2353 30.5523 21.2353 30V28.8989C20.4496 28.7098 19.7091 28.4049 19.0329 28.0033L18.2353 28.7995C17.8444 29.1896 17.2106 29.1896 16.8197 28.7995L15.4401 27.4225C15.0492 27.0323 15.0492 26.3998 15.4401 26.0096L16.2377 25.2135C15.8354 24.5386 15.5299 23.7994 15.3404 23.0151H14.2354C13.6831 23.0151 13.2354 22.5674 13.2354 22.0151V20.2575C13.2354 19.7053 13.6831 19.2576 14.2354 19.2576H15.3404C15.5299 18.4732 15.8354 17.7341 16.2377 17.0591L15.4402 16.2631C15.0493 15.8729 15.0493 15.2403 15.4401 14.8502L16.8197 13.4732C17.2106 13.0831 17.8444 13.0831 18.2353 13.4732L19.0329 14.2693C19.7091 13.8678 20.4496 13.5629 21.2353 13.3738V12.2727Z" fill="white"/>
<path d="M25 13.3738H24V14.1616L24.766 14.346L25 13.3738ZM27.2026 14.2694L26.6919 15.1292L27.3595 15.5257L27.909 14.9772L27.2026 14.2694ZM28.0003 13.4732L28.7068 14.181L28.0003 13.4732ZM29.4159 13.4732L30.1223 12.7654V12.7654L29.4159 13.4732ZM30.7955 14.8502L31.5019 14.1424L30.7955 14.8502ZM30.7955 16.2631L31.5019 16.9708V16.9708L30.7955 16.2631ZM29.9977 17.0593L29.2912 16.3516L28.7397 16.902L29.1387 17.5714L29.9977 17.0593ZM30.8949 19.2575L29.9229 19.4924L30.1078 20.2575H30.8949V19.2575ZM30.8949 23.0151V22.0151H30.1078L29.9229 22.7803L30.8949 23.0151ZM29.9977 25.2133L29.1387 24.7013L28.7397 25.3706L29.2912 25.9211L29.9977 25.2133ZM30.7955 26.0096L31.5019 25.3018V25.3018L30.7955 26.0096ZM30.7955 27.4225L31.5019 28.1303L31.5019 28.1303L30.7955 27.4225ZM29.4159 28.7995L30.1223 29.5073L29.4159 28.7995ZM28.0004 28.7995L27.2939 29.5073H27.2939L28.0004 28.7995ZM27.2026 28.0032L27.909 27.2954L27.3595 26.747L26.6919 27.1434L27.2026 28.0032ZM25 28.8989L24.766 27.9267L24 28.111V28.8989H25ZM21.2353 28.8989H22.2353V28.111L21.4693 27.9267L21.2353 28.8989ZM19.0329 28.0033L19.5435 27.1435L18.876 26.7471L18.3265 27.2956L19.0329 28.0033ZM18.2353 28.7995L18.9417 29.5072L18.2353 28.7995ZM16.8197 28.7995L17.5261 28.0917L16.8197 28.7995ZM15.4401 27.4225L14.7337 28.1303L14.7337 28.1303L15.4401 27.4225ZM15.4401 26.0096L14.7337 25.3018H14.7337L15.4401 26.0096ZM16.2377 25.2135L16.9442 25.9213L17.4957 25.3708L17.0967 24.7014L16.2377 25.2135ZM15.3404 23.0151L16.3124 22.7803L16.1275 22.0151H15.3404V23.0151ZM15.3404 19.2576V20.2576H16.1275L16.3124 19.4924L15.3404 19.2576ZM16.2377 17.0591L17.0967 17.5712L17.4957 16.9019L16.9442 16.3514L16.2377 17.0591ZM15.4402 16.2631L16.1466 15.5553H16.1466L15.4402 16.2631ZM15.4401 14.8502L14.7337 14.1424L14.7337 14.1424L15.4401 14.8502ZM16.8197 13.4732L16.1133 12.7654L16.1133 12.7654L16.8197 13.4732ZM18.2353 13.4732L18.9417 12.7654V12.7654L18.2353 13.4732ZM19.0329 14.2693L18.3265 14.9771L18.876 15.5256L19.5435 15.1291L19.0329 14.2693ZM21.2353 13.3738L21.4693 14.346L22.2353 14.1616V13.3738H21.2353ZM22.2353 10.2727C21.1308 10.2727 20.2353 11.1681 20.2353 12.2727H22.2353V12.2727V10.2727ZM24 10.2727H22.2353V12.2727H24V10.2727ZM26 12.2727C26 11.1681 25.1046 10.2727 24 10.2727V12.2727H26ZM26 13.3738V12.2727H24V13.3738H26ZM27.7132 13.4096C26.9524 12.9578 26.1188 12.6145 25.2341 12.4016L24.766 14.346C25.4528 14.5113 26.1003 14.7779 26.6919 15.1292L27.7132 13.4096ZM27.909 14.9772L28.7068 14.181L27.2939 12.7654L26.4961 13.5617L27.909 14.9772ZM28.7068 14.181C28.7077 14.18 28.708 14.1799 28.7076 14.1802C28.7073 14.1804 28.7069 14.1806 28.7066 14.1807C28.7061 14.1809 28.7067 14.1806 28.7081 14.1806C28.7095 14.1806 28.71 14.1809 28.7096 14.1807C28.7093 14.1806 28.7089 14.1804 28.7086 14.1802C28.7082 14.1799 28.7085 14.18 28.7094 14.181L30.1223 12.7654C29.341 11.9856 28.0751 11.9856 27.2939 12.7654L28.7068 14.181ZM28.7094 14.181L30.089 15.558L31.5019 14.1424L30.1223 12.7654L28.7094 14.181ZM30.089 15.558C30.09 15.5589 30.09 15.5591 30.0897 15.5586C30.0894 15.5582 30.0891 15.5576 30.0889 15.5571C30.0885 15.5561 30.0886 15.556 30.0886 15.5566C30.0886 15.5573 30.0885 15.5571 30.0889 15.5562C30.0891 15.5556 30.0894 15.555 30.0897 15.5546C30.09 15.5541 30.09 15.5543 30.089 15.5553L31.5019 16.9708C32.2842 16.19 32.2842 14.9232 31.5019 14.1424L30.089 15.558ZM30.089 15.5553L29.2912 16.3516L30.7041 17.7671L31.5019 16.9708L30.089 15.5553ZM31.867 19.0227C31.6535 18.1392 31.3094 17.3068 30.8566 16.5473L29.1387 17.5714C29.4905 18.1616 29.7574 18.8074 29.9229 19.4924L31.867 19.0227ZM30.8949 20.2575H32.0001V18.2575H30.8949V20.2575ZM32.0001 20.2575H34.0001C34.0001 19.153 33.1046 18.2575 32.0001 18.2575V20.2575ZM32.0001 20.2575V22.0151H34.0001V20.2575H32.0001ZM32.0001 22.0151V22.0151V24.0151C33.1046 24.0151 34.0001 23.1197 34.0001 22.0151H32.0001ZM32.0001 22.0151H30.8949V24.0151H32.0001V22.0151ZM30.8566 25.7254C31.3094 24.9658 31.6535 24.1335 31.867 23.25L29.9229 22.7803C29.7574 23.4652 29.4906 24.1111 29.1387 24.7013L30.8566 25.7254ZM29.2912 25.9211L30.0891 26.7174L31.5019 25.3018L30.7041 24.5055L29.2912 25.9211ZM30.0891 26.7174C30.09 26.7183 30.0901 26.7186 30.0897 26.7181C30.0894 26.7176 30.0892 26.7171 30.0889 26.7165C30.0885 26.7155 30.0887 26.7154 30.0887 26.7161C30.0887 26.7167 30.0885 26.7166 30.0889 26.7156C30.0892 26.715 30.0894 26.7145 30.0897 26.7141C30.0901 26.7136 30.09 26.7138 30.0891 26.7147L31.5019 28.1303C32.2843 27.3494 32.2843 26.0827 31.5019 25.3018L30.0891 26.7174ZM30.0891 26.7147L28.7095 28.0917L30.1223 29.5073L31.5019 28.1303L30.0891 26.7147ZM28.7095 28.0917C28.7085 28.0926 28.7083 28.0927 28.7086 28.0925C28.7089 28.0923 28.7093 28.0921 28.7096 28.092C28.7101 28.0918 28.7095 28.0921 28.7081 28.0921C28.7067 28.0921 28.7062 28.0918 28.7067 28.092C28.707 28.0921 28.7073 28.0923 28.7076 28.0925C28.708 28.0927 28.7077 28.0926 28.7068 28.0917L27.2939 29.5073C28.0752 30.287 29.3411 30.287 30.1223 29.5073L28.7095 28.0917ZM28.7068 28.0917L27.909 27.2954L26.4961 28.711L27.2939 29.5073L28.7068 28.0917ZM25.2341 29.8711C26.1188 29.6581 26.9524 29.3148 27.7132 28.863L26.6919 27.1434C26.1003 27.4948 25.4528 27.7613 24.766 27.9267L25.2341 29.8711ZM26 30V28.8989H24V30H26ZM24 32C25.1046 32 26 31.1045 26 30H24V30V32ZM22.2353 32H24V30H22.2353V32ZM20.2353 30C20.2353 31.1045 21.1307 32 22.2353 32V30H20.2353ZM20.2353 28.8989V30H22.2353V28.8989H20.2353ZM18.5223 28.8631C19.2831 29.3149 20.1166 29.6582 21.0013 29.8711L21.4693 27.9267C20.7826 27.7614 20.1351 27.4948 19.5435 27.1435L18.5223 28.8631ZM18.3265 27.2956L17.5288 28.0917L18.9417 29.5072L19.7393 28.7111L18.3265 27.2956ZM17.5288 28.0917C17.5279 28.0926 17.5276 28.0927 17.528 28.0925C17.5283 28.0923 17.5287 28.0921 17.529 28.092C17.5294 28.0918 17.5289 28.0921 17.5275 28.0921C17.5261 28.0921 17.5255 28.0918 17.526 28.092C17.5263 28.0921 17.5267 28.0923 17.527 28.0925C17.5274 28.0927 17.5271 28.0926 17.5261 28.0917L16.1133 29.5072C16.8945 30.287 18.1604 30.287 18.9417 29.5072L17.5288 28.0917ZM17.5261 28.0917L16.1466 26.7147L14.7337 28.1303L16.1133 29.5072L17.5261 28.0917ZM16.1466 26.7147C16.1456 26.7138 16.1456 26.7136 16.1459 26.714C16.1462 26.7145 16.1465 26.715 16.1467 26.7156C16.1471 26.7166 16.1469 26.7167 16.1469 26.716C16.1469 26.7154 16.1471 26.7155 16.1467 26.7165C16.1465 26.7171 16.1462 26.7176 16.1459 26.7181C16.1456 26.7185 16.1456 26.7183 16.1466 26.7174L14.7337 25.3018C13.9514 26.0827 13.9514 27.3494 14.7337 28.1303L16.1466 26.7147ZM16.1466 26.7174L16.9442 25.9213L15.5313 24.5057L14.7337 25.3018L16.1466 26.7174ZM14.3683 23.25C14.5818 24.1336 14.9259 24.966 15.3788 25.7256L17.0967 24.7014C16.7448 24.1112 16.4779 23.4653 16.3124 22.7803L14.3683 23.25ZM15.3404 22.0151H14.2354V24.0151H15.3404V22.0151ZM14.2354 22.0151H14.2354H12.2354C12.2354 23.1197 13.1308 24.0151 14.2354 24.0151V22.0151ZM14.2354 22.0151V20.2575H12.2354V22.0151H14.2354ZM14.2354 20.2575V20.2576V18.2576C13.1308 18.2576 12.2354 19.153 12.2354 20.2575H14.2354ZM14.2354 20.2576H15.3404V18.2576H14.2354V20.2576ZM15.3788 16.5471C14.9259 17.3067 14.5818 18.1391 14.3683 19.0227L16.3124 19.4924C16.4779 18.8074 16.7448 18.1615 17.0967 17.5712L15.3788 16.5471ZM16.9442 16.3514L16.1466 15.5553L14.7337 16.9708L15.5313 17.7669L16.9442 16.3514ZM16.1466 15.5553C16.1457 15.5544 16.1456 15.5541 16.1459 15.5546C16.1462 15.5551 16.1465 15.5556 16.1467 15.5562C16.1471 15.5572 16.147 15.5573 16.147 15.5566C16.147 15.556 16.1471 15.5561 16.1467 15.5571C16.1465 15.5576 16.1462 15.5582 16.1459 15.5586C16.1456 15.5591 16.1457 15.5589 16.1466 15.558L14.7337 14.1424C13.9514 14.9232 13.9514 16.19 14.7337 16.9708L16.1466 15.5553ZM16.1466 15.558L17.5262 14.181L16.1133 12.7654L14.7337 14.1424L16.1466 15.558ZM17.5262 14.181C17.5271 14.1801 17.5274 14.1799 17.527 14.1802C17.5267 14.1804 17.5264 14.1806 17.526 14.1807C17.5256 14.1809 17.5261 14.1806 17.5275 14.1806C17.5289 14.1806 17.5295 14.1809 17.529 14.1807C17.5287 14.1806 17.5283 14.1804 17.528 14.1802C17.5277 14.1799 17.5279 14.1801 17.5289 14.181L18.9417 12.7654C18.1605 11.9856 16.8946 11.9856 16.1133 12.7654L17.5262 14.181ZM17.5289 14.181L18.3265 14.9771L19.7394 13.5615L18.9417 12.7654L17.5289 14.181ZM21.0013 12.4015C20.1166 12.6145 19.2831 12.9577 18.5223 13.4095L19.5435 15.1291C20.1351 14.7778 20.7826 14.5113 21.4693 14.346L21.0013 12.4015ZM20.2353 12.2727V13.3738H22.2353V12.2727H20.2353Z" fill="#2F3E46" mask="url(#path-5-inside-1)"/>
<path d="M26.8529 21.1363C26.8529 23.194 25.1815 24.8636 23.1176 24.8636C21.0538 24.8636 19.3823 23.194 19.3823 21.1363C19.3823 19.0787 21.0538 17.4091 23.1176 17.4091C25.1815 17.4091 26.8529 19.0787 26.8529 21.1363Z" fill="white" stroke="#2F3E46"/>
</svg>
