<svg width="34" height="34" viewBox="0 0 34 34" fill="none" xmlns="http://www.w3.org/2000/svg">
<path d="M17 0V34M34 17L0 17" stroke="black"/>
<path d="M30.1 17C30.1 24.2349 24.2349 30.1 17 30.1C9.76506 30.1 3.89999 24.2349 3.89999 17C3.89999 9.76506 9.76506 3.89999 17 3.89999C24.2349 3.89999 30.1 9.76506 30.1 17Z" stroke="black"/>
<path d="M25.5 17C25.5 21.6944 21.6944 25.5 17 25.5C12.3056 25.5 8.5 21.6944 8.5 17C8.5 12.3056 12.3056 8.5 17 8.5C21.6944 8.5 25.5 12.3056 25.5 17Z" fill="black"/>
</svg>
