<svg width="84" height="106" viewBox="0 0 84 106" fill="none" xmlns="http://www.w3.org/2000/svg">
<path fill-rule="evenodd" clip-rule="evenodd" d="M50.7711 56.393L47.1794 50.1476L43.5645 43.9022H50.7711H58.0009L54.386 50.1476L50.7711 56.393Z" fill="white"/>
<path d="M17.9819 43.9027V24.01V23.9869C17.9819 17.3714 20.6699 11.3805 25.0264 7.03183C29.3828 2.6832 35.3845 0 42.0118 0C48.6392 0 54.6408 2.6832 58.9973 7.03183C63.3537 11.3805 66.0417 17.3714 66.0417 23.9869V24.01V43.9258H60.8047V24.01V23.9869C60.8047 18.8055 58.696 14.133 55.3128 10.7328C51.9065 7.33253 47.2256 5.25074 42.035 5.25074C36.8444 5.25074 32.1635 7.35566 28.7572 10.7328C25.3508 14.133 23.2653 18.8055 23.2653 23.9869V24.01V43.9027H18.0283H17.9819Z" fill="white"/>
<path fill-rule="evenodd" clip-rule="evenodd" d="M33.2062 31.4347L29.5912 37.6569L25.9995 43.9023H33.2062H40.4128L36.8211 37.6569L33.2062 31.4347Z" fill="white"/>
<path d="M8.01769 68.6299C6.60416 68.6299 5.07478 69.0925 5.07478 70.6886V86.5333C5.07478 89.9798 5.72361 91.5296 9.29217 91.5296C12.6522 91.5296 17.055 88.5457 17.055 80.1723C17.055 76.7258 15.7341 68.6299 8.01769 68.6299ZM9.08362 94.606C4.2174 94.606 0 94.3285 0 88.3838V70.9199C0 68.9537 1.15863 66.2011 5.23699 65.831C6.0712 65.7848 8.17989 65.7385 8.78238 65.7385C16.1744 65.7385 22.4078 70.4573 22.4078 80.1723C22.4078 87.9212 18.5612 94.606 9.06045 94.606H9.08362Z" fill="white"/>
<path d="M31.5146 94.6063C30.2401 94.6063 29.2205 93.5886 29.2205 92.3164V76.9574C29.2205 75.6389 30.2401 74.6211 31.5146 74.6211C32.7891 74.6211 33.855 75.6389 33.855 76.9574V92.3164C33.855 93.5886 32.7891 94.6063 31.5146 94.6063ZM31.5609 69.6711C30.1011 69.6711 28.9888 68.5145 28.9888 67.1036C28.9888 65.6926 30.1011 64.536 31.5609 64.536C32.9744 64.536 34.0867 65.6926 34.0867 67.1036C34.0867 68.5145 32.9744 69.6711 31.5609 69.6711Z" fill="white"/>
<path d="M55.336 94.6063C54.0615 94.6063 52.9956 93.5885 52.9956 92.3163V83.9198C52.9956 80.9821 53.0882 77.2349 49.3343 77.2349C45.534 77.2349 45.6267 80.9821 45.6267 83.9198V92.3163C45.6267 93.5885 44.6071 94.6063 43.2863 94.6063C42.0118 94.6063 40.9922 93.5885 40.9922 92.3163V82.5088C40.9922 78.2989 43.9351 74.6211 49.3111 74.6211C54.6408 74.6211 57.5837 78.3221 57.5837 82.5088V92.3163C57.5837 93.5885 56.5641 94.6063 55.2896 94.6063H55.336Z" fill="white"/>
<path d="M83.4671 72.2382C82.1463 73.3484 80.8949 74.4819 79.6668 75.3608C79.4814 75.5459 79.2033 75.6847 78.9253 75.6847C78.2764 75.6847 77.813 75.1758 77.813 74.5744C77.813 74.2968 77.9057 74.0655 78.0447 73.8342C78.9716 72.1456 79.5973 71.1741 80.6169 69.6706C80.9876 69.1617 81.4974 69.0229 82.0767 69.0229C83.1427 69.0229 84.0001 69.8557 84.0001 70.9428C84.0001 71.4517 83.8147 71.9606 83.4903 72.2613L83.4671 72.2382ZM73.92 89.8871C73.2248 90.0259 72.5528 89.7021 72.5065 89.0081C72.4601 88.268 73.2943 87.9441 73.781 87.6897C75.6116 86.6257 75.9824 84.6133 75.9824 82.9247C75.9824 78.5298 74.5225 77.0494 72.0894 77.0494C69.8416 77.0494 68.15 78.7842 68.15 83.2254C68.15 87.574 71.1856 89.7252 73.387 90.743C77.5581 92.6628 80.2229 93.9582 80.2229 97.7979C80.2229 102.84 75.0323 105.824 69.355 105.824C68.4745 105.824 67.2 105.732 66.4585 105.501C65.7633 105.269 65.4389 104.714 65.4389 104.09C65.4389 103.396 66.0877 102.979 66.7597 102.979C67.5012 102.979 68.3586 103.303 69.7026 103.303C72.4601 103.303 75.5421 101.615 75.5421 97.8905C75.5421 94.1895 72.1357 92.8942 70.1661 91.9227C66.667 90.0953 63.4229 87.8979 63.4229 83.0403C63.4229 77.6277 67.9183 74.6438 72.1357 74.6438C77.6508 74.6438 80.6169 78.1366 80.6169 82.0688C80.6169 85.2841 79.296 88.8462 73.92 89.9103V89.8871Z" fill="white"/>
</svg>
