<svg width="25" height="5" viewBox="0 0 25 5" fill="none" xmlns="http://www.w3.org/2000/svg">
<path d="M22.7273 5C23.9826 5 25 3.9826 25 2.72729C25 1.47198 23.9826 0.454575 22.7273 0.454575C21.472 0.454575 20.4545 1.47198 20.4545 2.72729C20.4545 3.9826 21.472 5 22.7273 5ZM12.1212 5C13.3765 5 14.3939 3.98256 14.3939 2.72729C14.3939 1.47202 13.3765 0.454575 12.1212 0.454574C10.8659 0.454574 9.84849 1.47193 9.84849 2.72729C9.84849 3.9826 10.8659 5 12.1212 5ZM2.27271 5C3.52802 5 4.54542 3.98256 4.54542 2.72729C4.54542 1.47202 3.52802 0.454574 2.27271 0.454574C1.01744 0.454573 3.0843e-07 1.47197 1.98687e-07 2.72729C8.89441e-08 3.9826 1.01744 5 2.27271 5Z" fill="#A9A9A9"/>
</svg>
