<svg width="30" height="50" viewBox="0 0 30 50" fill="none" xmlns="http://www.w3.org/2000/svg">
<path d="M15 24C19.9706 24 24 19.9706 24 15C24 10.0294 19.9706 6 15 6C10.0294 6 6 10.0294 6 15C6 19.9706 10.0294 24 15 24Z" fill="#2F3E46"/>
<path d="M15.1751 0C19.1284 0 23.0817 1.48144 25.5525 4.44432C28.5175 7.4072 30 10.8639 30 14.8144C30 18.7649 28.5175 22.7154 25.5525 25.1845C22.5876 28.1474 19.1284 29.6288 15.1751 29.6288C11.2218 29.6288 7.26854 28.1474 4.79774 25.1845C1.83277 22.2216 0.350281 18.7649 0.350281 14.8144C0.350281 10.8639 1.83277 6.91339 4.79774 4.44432C7.76271 1.48144 11.2218 0 15.1751 0ZM23.0817 6.91339C21.1051 4.93813 18.1401 3.45669 15.1751 3.45669C12.2102 3.45669 9.24519 4.93813 7.26854 6.91339C5.2919 8.88864 3.80941 11.8515 3.80941 14.8144C3.80941 17.7773 5.2919 20.7402 7.26854 22.7154C9.24519 24.6907 12.2102 26.1721 15.1751 26.1721C18.1401 26.1721 21.1051 24.6907 23.0817 22.7154C25.0584 20.7402 26.5408 17.7773 26.5408 14.8144C26.5408 11.8515 25.0584 8.88864 23.0817 6.91339Z" fill="#2F3E46"/>
<path d="M13.6929 28.1474C13.6929 27.1598 14.6813 26.1722 15.6696 26.1722C16.6579 26.1722 17.6462 27.1598 17.6462 28.1474V47.9C17.6462 48.8876 16.6579 49.8752 15.6696 49.8752C14.6813 49.8752 13.6929 48.8876 13.6929 47.9V28.1474Z" fill="#2F3E46"/>
</svg>
