<svg width="31" height="31" viewBox="0 0 31 31" fill="none" xmlns="http://www.w3.org/2000/svg">
<mask id="path-1-inside-1" fill="white">
<path fill-rule="evenodd" clip-rule="evenodd" d="M12.5476 1C12.5476 0.447716 12.9953 0 13.5476 0H17.4524C18.0047 0 18.4524 0.447715 18.4524 1V3.30171C19.6848 3.59896 20.8463 4.07812 21.9069 4.7092L23.5611 3.05496C23.9517 2.66444 24.5848 2.66443 24.9753 3.05496L27.9452 6.02481C28.3357 6.41533 28.3357 7.0485 27.9452 7.43902L26.2909 9.09335C26.9218 10.1538 27.4009 11.3152 27.6981 12.5476H30C30.5523 12.5476 31 12.9953 31 13.5476V17.4523C31 18.0046 30.5523 18.4523 30 18.4523H27.6981C27.4009 19.6847 26.9218 20.8462 26.2908 21.9067L27.9452 23.5611C28.3357 23.9516 28.3357 24.5848 27.9452 24.9753L24.9753 27.9451C24.5848 28.3356 23.9516 28.3356 23.5611 27.9451L21.9068 26.2908C20.8463 26.9219 19.6848 27.401 18.4524 27.6982V30C18.4524 30.5523 18.0047 31 17.4524 31H13.5476C12.9953 31 12.5476 30.5523 12.5476 30V27.6983C11.3152 27.4011 10.1537 26.922 9.09319 26.291L7.4391 27.9451C7.04858 28.3356 6.41541 28.3356 6.02489 27.9451L3.05504 24.9753C2.66451 24.5847 2.66451 23.9516 3.05504 23.5611L4.70903 21.9071C4.07792 20.8464 3.59873 19.6848 3.30149 18.4523H1C0.447716 18.4523 0 18.0046 0 17.4523V13.5476C0 12.9953 0.447715 12.5476 1 12.5476H3.30152C3.59875 11.3151 4.07791 10.1536 4.70898 9.09299L3.05502 7.43902C2.66449 7.0485 2.66449 6.41533 3.05501 6.02481L6.02486 3.05496C6.41539 2.66444 7.04855 2.66444 7.43908 3.05496L9.0931 4.70898C10.1537 4.07796 11.3152 3.59884 12.5476 3.30163V1Z"/>
</mask>
<path fill-rule="evenodd" clip-rule="evenodd" d="M12.5476 1C12.5476 0.447716 12.9953 0 13.5476 0H17.4524C18.0047 0 18.4524 0.447715 18.4524 1V3.30171C19.6848 3.59896 20.8463 4.07812 21.9069 4.7092L23.5611 3.05496C23.9517 2.66444 24.5848 2.66443 24.9753 3.05496L27.9452 6.02481C28.3357 6.41533 28.3357 7.0485 27.9452 7.43902L26.2909 9.09335C26.9218 10.1538 27.4009 11.3152 27.6981 12.5476H30C30.5523 12.5476 31 12.9953 31 13.5476V17.4523C31 18.0046 30.5523 18.4523 30 18.4523H27.6981C27.4009 19.6847 26.9218 20.8462 26.2908 21.9067L27.9452 23.5611C28.3357 23.9516 28.3357 24.5848 27.9452 24.9753L24.9753 27.9451C24.5848 28.3356 23.9516 28.3356 23.5611 27.9451L21.9068 26.2908C20.8463 26.9219 19.6848 27.401 18.4524 27.6982V30C18.4524 30.5523 18.0047 31 17.4524 31H13.5476C12.9953 31 12.5476 30.5523 12.5476 30V27.6983C11.3152 27.4011 10.1537 26.922 9.09319 26.291L7.4391 27.9451C7.04858 28.3356 6.41541 28.3356 6.02489 27.9451L3.05504 24.9753C2.66451 24.5847 2.66451 23.9516 3.05504 23.5611L4.70903 21.9071C4.07792 20.8464 3.59873 19.6848 3.30149 18.4523H1C0.447716 18.4523 0 18.0046 0 17.4523V13.5476C0 12.9953 0.447715 12.5476 1 12.5476H3.30152C3.59875 11.3151 4.07791 10.1536 4.70898 9.09299L3.05502 7.43902C2.66449 7.0485 2.66449 6.41533 3.05501 6.02481L6.02486 3.05496C6.41539 2.66444 7.04855 2.66444 7.43908 3.05496L9.0931 4.70898C10.1537 4.07796 11.3152 3.59884 12.5476 3.30163V1Z" fill="white"/>
<path d="M18.4524 3.30171H17.4524V4.08921L18.2179 4.27384L18.4524 3.30171ZM21.9069 4.7092L21.3955 5.56857L22.064 5.96632L22.614 5.41631L21.9069 4.7092ZM23.5611 3.05496L24.2682 3.76207V3.76207L23.5611 3.05496ZM24.9753 3.05496L24.2682 3.76207V3.76207L24.9753 3.05496ZM27.9452 6.02481L28.6523 5.3177V5.3177L27.9452 6.02481ZM27.9452 7.43902L28.6523 8.14613L27.9452 7.43902ZM26.2909 9.09335L25.5838 8.38625L25.0338 8.93624L25.4315 9.60467L26.2909 9.09335ZM27.6981 12.5476L26.726 12.782L26.9106 13.5476H27.6981V12.5476ZM27.6981 18.4523V17.4523H26.9106L26.726 18.2179L27.6981 18.4523ZM26.2908 21.9067L25.4314 21.3954L25.0337 22.0638L25.5837 22.6138L26.2908 21.9067ZM27.9452 24.9753L28.6523 25.6824H28.6523L27.9452 24.9753ZM24.9753 27.9451L24.2682 27.238H24.2682L24.9753 27.9451ZM23.5611 27.9451L24.2682 27.238L24.2682 27.238L23.5611 27.9451ZM21.9068 26.2908L22.6139 25.5837L22.0639 25.0337L21.3955 25.4314L21.9068 26.2908ZM18.4524 27.6982L18.2179 26.7261L17.4524 26.9108V27.6982H18.4524ZM12.5476 27.6983H13.5476V26.9108L12.782 26.7262L12.5476 27.6983ZM9.09319 26.291L9.60451 25.4316L8.93607 25.0339L8.38608 25.5839L9.09319 26.291ZM6.02489 27.9451L6.73199 27.238L6.73199 27.238L6.02489 27.9451ZM3.05504 24.9753L2.34793 25.6824L2.34793 25.6824L3.05504 24.9753ZM3.05504 23.5611L3.76214 24.2682L3.05504 23.5611ZM4.70903 21.9071L5.41614 22.6142L5.96615 22.0642L5.5684 21.3957L4.70903 21.9071ZM3.30149 18.4523L4.27362 18.2179L4.089 17.4523H3.30149V18.4523ZM3.30152 12.5476V13.5476H4.08901L4.27364 12.782L3.30152 12.5476ZM4.70898 9.09299L5.56835 9.60434L5.9661 8.93589L5.41609 8.38588L4.70898 9.09299ZM3.05501 6.02481L3.76212 6.73192H3.76212L3.05501 6.02481ZM6.02486 3.05496L5.31776 2.34786V2.34786L6.02486 3.05496ZM7.43908 3.05496L6.73197 3.76207V3.76207L7.43908 3.05496ZM9.0931 4.70898L8.38599 5.41609L8.93599 5.96609L9.60443 5.56837L9.0931 4.70898ZM12.5476 3.30163L12.782 4.27376L13.5476 4.08915V3.30163H12.5476ZM13.5476 -1C12.443 -1 11.5476 -0.104567 11.5476 1H13.5476V1V-1ZM17.4524 -1H13.5476V1H17.4524V-1ZM19.4524 1C19.4524 -0.10457 18.5569 -1 17.4524 -1V1V1H19.4524ZM19.4524 3.30171V1H17.4524V3.30171H19.4524ZM22.4182 3.84983C21.273 3.1684 20.0184 2.65074 18.6868 2.32959L18.2179 4.27384C19.3512 4.54718 20.4196 4.98785 21.3955 5.56857L22.4182 3.84983ZM22.614 5.41631L24.2682 3.76207L22.854 2.34785L21.1998 4.00209L22.614 5.41631ZM24.2682 3.76207V3.76207L25.6825 2.34785C24.9014 1.5668 23.6351 1.56681 22.854 2.34785L24.2682 3.76207ZM24.2682 3.76207L27.2381 6.73191L28.6523 5.3177L25.6825 2.34785L24.2682 3.76207ZM27.2381 6.73191V6.73192L28.6523 8.14613C29.4333 7.36508 29.4333 6.09875 28.6523 5.3177L27.2381 6.73191ZM27.2381 6.73191L25.5838 8.38625L26.998 9.80046L28.6523 8.14613L27.2381 6.73191ZM28.6702 12.3131C28.3491 10.9817 27.8316 9.72714 27.1502 8.58204L25.4315 9.60467C26.0121 10.5805 26.4527 11.6488 26.726 12.782L28.6702 12.3131ZM27.6981 13.5476H30V11.5476H27.6981V13.5476ZM30 13.5476H30H32C32 12.443 31.1046 11.5476 30 11.5476V13.5476ZM30 13.5476V17.4523H32V13.5476H30ZM30 17.4523V19.4523C31.1046 19.4523 32 18.5569 32 17.4523H30ZM30 17.4523H27.6981V19.4523H30V17.4523ZM27.1502 22.418C27.8316 21.2729 28.3492 20.0182 28.6703 18.6868L26.726 18.2179C26.4527 19.3511 26.0121 20.4195 25.4314 21.3954L27.1502 22.418ZM25.5837 22.6138L27.2381 24.2682L28.6523 22.854L26.9979 21.1996L25.5837 22.6138ZM27.2381 24.2682L28.6523 25.6824C29.4333 24.9013 29.4333 23.635 28.6523 22.854L27.2381 24.2682ZM27.2381 24.2682L24.2682 27.238L25.6824 28.6522L28.6523 25.6824L27.2381 24.2682ZM24.2682 27.238L24.2682 27.238L22.854 28.6522C23.6351 29.4333 24.9014 29.4333 25.6824 28.6522L24.2682 27.238ZM24.2682 27.238L22.6139 25.5837L21.1997 26.9979L22.854 28.6522L24.2682 27.238ZM18.6868 28.6704C20.0183 28.3492 21.273 27.8316 22.4182 27.1502L21.3955 25.4314C20.4195 26.0121 19.3512 26.4528 18.2179 26.7261L18.6868 28.6704ZM19.4524 30V27.6982H17.4524V30H19.4524ZM17.4524 32C18.5569 32 19.4524 31.1046 19.4524 30H17.4524V32ZM13.5476 32H17.4524V30H13.5476V32ZM11.5476 30C11.5476 31.1046 12.443 32 13.5476 32V30H13.5476H11.5476ZM11.5476 27.6983V30H13.5476V27.6983H11.5476ZM8.58187 27.1504C9.72705 27.8318 10.9817 28.3494 12.3132 28.6705L12.782 26.7262C11.6487 26.4529 10.5804 26.0123 9.60451 25.4316L8.58187 27.1504ZM8.38608 25.5839L6.73199 27.238L8.14621 28.6522L9.80029 26.9981L8.38608 25.5839ZM6.73199 27.238L6.73199 27.238L5.31778 28.6522C6.09883 29.4333 7.36516 29.4333 8.14621 28.6522L6.73199 27.238ZM6.73199 27.238L3.76214 24.2682L2.34793 25.6824L5.31778 28.6522L6.73199 27.238ZM3.76215 24.2682L3.76214 24.2682L2.34793 22.8539C1.56688 23.635 1.56688 24.9013 2.34793 25.6824L3.76215 24.2682ZM3.76214 24.2682L5.41614 22.6142L4.00193 21.2L2.34793 22.8539L3.76214 24.2682ZM2.32936 18.6868C2.65051 20.0184 3.16819 21.2731 3.84966 22.4184L5.5684 21.3957C4.98765 20.4197 4.54696 19.3513 4.27362 18.2179L2.32936 18.6868ZM3.30149 17.4523H1V19.4523H3.30149V17.4523ZM1 17.4523H1H-1C-1 18.5569 -0.104568 19.4523 1 19.4523V17.4523ZM1 17.4523V13.5476H-1V17.4523H1ZM1 13.5476L1 13.5476V11.5476C-0.104572 11.5476 -1 12.443 -1 13.5476H1ZM1 13.5476H3.30152V11.5476H1V13.5476ZM3.84961 8.58164C3.16818 9.72686 2.65052 10.9815 2.32939 12.3131L4.27364 12.782C4.54698 11.6487 4.98764 10.5803 5.56835 9.60434L3.84961 8.58164ZM5.41609 8.38588L3.76212 6.73192L2.34791 8.14613L4.00187 9.8001L5.41609 8.38588ZM3.76212 6.73192L3.76212 6.73192L2.34791 5.3177C1.56686 6.09875 1.56686 7.36508 2.34791 8.14613L3.76212 6.73192ZM3.76212 6.73192L6.73197 3.76207L5.31776 2.34786L2.34791 5.3177L3.76212 6.73192ZM6.73197 3.76207L6.73197 3.76207L8.14618 2.34786C7.36514 1.56681 6.0988 1.56681 5.31776 2.34786L6.73197 3.76207ZM6.73197 3.76207L8.38599 5.41609L9.80021 4.00188L8.14618 2.34786L6.73197 3.76207ZM12.3132 2.3295C10.9816 2.6506 9.72698 3.16821 8.58177 3.8496L9.60443 5.56837C10.5804 4.9877 11.6487 4.54707 12.782 4.27376L12.3132 2.3295ZM11.5476 1V3.30163H13.5476V1H11.5476Z" fill="#2F3E46" mask="url(#path-1-inside-1)"/>
<path d="M21.82 15.8283C21.82 19.3465 18.9873 22.1929 15.5 22.1929C12.0126 22.1929 9.17993 19.3465 9.17993 15.8283C9.17993 12.3102 12.0126 9.46375 15.5 9.46375C18.9873 9.46375 21.82 12.3102 21.82 15.8283Z" fill="white" stroke="#2F3E46"/>
</svg>
