<svg width="31" height="31" viewBox="0 0 31 31" fill="none" xmlns="http://www.w3.org/2000/svg">
<path d="M26.5714 11.9295C26.5714 5.78485 21.617 0.830383 15.5 0.830383C9.38303 0.830383 4.42857 5.78485 4.42857 11.9018C4.42857 11.9018 4.42857 11.9018 4.42857 11.9295C1.96518 12.0679 0 14.1161 0 16.6072V17.1607C0 19.7625 2.10357 21.8661 4.70536 21.8661H4.95446L6.91964 24.9938C8.30357 27.2081 10.6562 28.509 13.258 28.509H13.6455C13.8946 29.45 14.7527 30.1697 15.7768 30.1697C16.9946 30.1697 17.9911 29.1732 17.9911 27.9554C17.9911 26.7375 16.9946 25.7411 15.7768 25.7411C14.7527 25.7411 13.8946 26.4607 13.6455 27.4018H13.258C11.0437 27.4018 9.02321 26.267 7.86071 24.3849L6.25536 21.8661H6.64286C7.25179 21.8661 7.75 21.3679 7.75 20.759V13.009C7.75 12.4 7.25179 11.9018 6.64286 11.9018H5.53571C5.53571 6.39378 9.99196 1.93753 15.5 1.93753C21.008 1.93753 25.4643 6.39378 25.4643 11.9018H24.3571C23.7482 11.9018 23.25 12.4 23.25 13.009V20.759C23.25 21.3679 23.7482 21.8661 24.3571 21.8661H26.2946C28.8964 21.8661 31 19.7625 31 17.1607V16.6072C31 14.1161 29.0348 12.0679 26.5714 11.9295ZM15.7768 26.8482C16.3857 26.8482 16.8839 27.3465 16.8839 27.9554C16.8839 28.5643 16.3857 29.0625 15.7768 29.0625C15.1679 29.0625 14.6696 28.5643 14.6696 27.9554C14.6696 27.3465 15.1679 26.8482 15.7768 26.8482ZM6.64286 13.009V20.759H4.70536C2.7125 20.759 1.10714 19.1536 1.10714 17.1607V16.6072C1.10714 14.6143 2.7125 13.009 4.70536 13.009H6.64286ZM29.8929 17.1607C29.8929 19.1536 28.2875 20.759 26.2946 20.759H24.3571V13.009H26.2946C28.2875 13.009 29.8929 14.6143 29.8929 16.6072V17.1607Z" fill="#2F3E46"/>
<path d="M20.0947 5.00982C20.0393 4.98214 19.9563 4.92679 19.8732 4.87143C19.7902 4.81607 19.7071 4.76071 19.6518 4.73304C19.4027 4.56696 19.0429 4.65 18.9045 4.92679C18.7661 5.20357 18.8214 5.50804 19.0982 5.67411C19.1536 5.70179 19.2366 5.75714 19.3196 5.8125C19.4027 5.86786 19.4857 5.92322 19.5688 5.95089C19.6518 6.00625 19.7625 6.03393 19.8455 6.03393C20.0393 6.03393 20.2054 5.95089 20.3161 5.75714C20.4545 5.50804 20.3714 5.17589 20.0947 5.00982Z" fill="#2F3E46"/>
<path d="M15.5001 3.59827C13.1474 3.59827 10.9331 4.62237 9.41082 6.3938C9.21707 6.61523 9.24475 6.97505 9.46617 7.1688C9.57689 7.25184 9.6876 7.3072 9.82599 7.3072C9.99207 7.3072 10.1305 7.25184 10.2412 7.11345C11.5697 5.59112 13.4796 4.70541 15.5001 4.70541C15.9983 4.70541 16.4965 4.76077 16.9947 4.87148C17.2992 4.92684 17.576 4.73309 17.659 4.4563C17.7421 4.17952 17.5206 3.87505 17.2438 3.79202C16.6626 3.65362 16.0813 3.59827 15.5001 3.59827Z" fill="#2F3E46"/>
</svg>
