<svg width="26" height="24" viewBox="0 0 26 24" fill="none" xmlns="http://www.w3.org/2000/svg">
<path d="M19.5644 5.19116L8.87142 11.777C8.26631 12.1505 7.97996 12.8883 8.1749 13.5707L9.33109 17.6332C9.42986 17.9796 9.7381 18.2099 10.0928 18.2099C10.1125 18.2099 10.1325 18.2091 10.1525 18.2077C10.5316 18.1801 10.8316 17.8977 10.8821 17.5214L11.1827 15.2938C11.2232 14.9941 11.3676 14.7153 11.589 14.5092L20.413 6.30683C20.6796 6.05957 20.7149 5.6547 20.4951 5.36509C20.2751 5.07523 19.8752 5.00028 19.5644 5.19116ZM10.8834 13.7508C10.4869 14.1199 10.2286 14.6186 10.1561 15.1552L10.0103 16.2357L9.17103 13.2867C9.10283 13.0478 9.20328 12.7895 9.41503 12.6588L17.2484 7.83423L10.8834 13.7508Z" fill="#818181"/>
<path d="M25.577 0.898291C25.2429 0.615135 24.7819 0.537186 24.3736 0.694913L0.765795 9.80212C0.298252 9.98245 -0.00237261 10.4227 1.41078e-05 10.9236C0.00245161 11.425 0.307495 11.8628 0.77778 12.039L6.29212 14.0971L8.44316 21.0148C8.56128 21.3951 8.85941 21.6906 9.24058 21.8053C9.62154 21.9198 10.033 21.8379 10.3405 21.5864L13.5468 18.9726C13.7008 18.847 13.9207 18.8408 14.0815 18.9576L19.8646 23.1562C20.0726 23.3074 20.3182 23.3853 20.5665 23.3853C20.712 23.3853 20.8585 23.3586 20.999 23.3042C21.3792 23.1572 21.6556 22.8314 21.7384 22.4327L25.975 2.05372C26.064 1.62462 25.9115 1.1819 25.577 0.898291ZM24.9608 1.84323L20.7243 22.2221C20.7089 22.2958 20.6559 22.3264 20.6256 22.3381C20.5952 22.3499 20.535 22.363 20.4734 22.3182L14.6901 18.1193C14.4316 17.9316 14.1276 17.8385 13.8242 17.8385C13.4932 17.8385 13.1627 17.9494 12.8925 18.1695L9.68547 20.784C9.62839 20.8307 9.56913 20.8224 9.53897 20.8133C9.5086 20.8041 9.45442 20.7782 9.43238 20.7073L7.20587 13.5469C7.15829 13.3939 7.04251 13.2715 6.8924 13.2154L1.14066 11.0688C1.05454 11.0365 1.03621 10.9693 1.03595 10.9186C1.0357 10.8683 1.05337 10.8014 1.13868 10.7685L24.7465 1.66138C24.7466 1.66133 24.7468 1.66128 24.7469 1.66123C24.8236 1.63162 24.8803 1.66565 24.9074 1.6885C24.9345 1.7116 24.9776 1.76239 24.9608 1.84323Z" fill="#818181"/>
</svg>
