<svg width="30" height="33" viewBox="0 0 30 33" fill="none" xmlns="http://www.w3.org/2000/svg">
<path d="M14.519 3.83814C18.5098 3.83814 22.1586 5.42507 24.7811 7.97153C27.4037 10.518 29.038 14.024 29.038 17.9359C29.038 21.811 27.4037 25.3539 24.7811 27.9004C22.1586 30.4468 18.5478 32.0337 14.519 32.0337C10.5282 32.0337 6.87942 30.4468 4.25688 27.9004C1.63434 25.3539 0 21.8479 0 17.9359C0 14.0609 1.63434 10.518 4.25688 7.97153C6.87942 5.42507 10.4902 3.83814 14.519 3.83814ZM10.0721 0H19.0039V2.02979H10.0721V0ZM14.519 5.86793C11.0983 5.86793 7.98165 7.23342 5.73919 9.41083C3.49672 11.5882 2.09043 14.6145 2.09043 17.9359C2.09043 21.2574 3.49672 24.2836 5.73919 26.461C7.98165 28.6385 11.0983 30.0039 14.519 30.0039C17.9397 30.0039 21.0564 28.6385 23.2988 26.461C25.5413 24.2836 26.9476 21.2574 26.9476 17.9359C26.9476 14.6145 25.5413 11.5882 23.2988 9.41083C21.0564 7.23342 17.9397 5.86793 14.519 5.86793Z" fill="#00BFA5"/>
<path fill-rule="evenodd" clip-rule="evenodd" d="M14.519 7.71319C20.3342 7.71319 25.0091 12.2894 25.0091 17.899C25.0091 23.5455 20.2962 28.0849 14.519 28.0849C8.70378 28.0849 4.02881 23.5086 4.02881 17.899C4.02881 12.2525 8.74178 7.71319 14.519 7.71319ZM15.2031 15.8323C15.5452 15.9431 15.8493 16.1276 16.1153 16.349C16.5334 16.755 16.7614 17.2716 16.7614 17.899C16.7614 18.4895 16.4954 19.0431 16.1153 19.4491C15.6972 19.855 15.1651 20.0764 14.519 20.0764C13.9109 20.0764 13.3407 19.8181 12.9226 19.4491C12.5046 19.0431 12.2765 18.5264 12.2765 17.899C12.2765 17.3086 12.5426 16.755 12.9226 16.349C13.1887 16.0907 13.4928 15.9062 13.8348 15.8323V11.4037C13.8348 11.0347 14.1389 10.7394 14.519 10.7394C14.8991 10.7394 15.2031 11.0347 15.2031 11.4037V15.8323ZM15.1271 17.3086C14.9751 17.1609 14.747 17.0502 14.519 17.0502C14.2909 17.0502 14.0629 17.1609 13.9109 17.3086C13.7588 17.4562 13.6448 17.6776 13.6448 17.899C13.6448 18.1205 13.7588 18.3419 13.9109 18.4895C14.0629 18.6371 14.2909 18.7479 14.519 18.7479C14.747 18.7479 14.9751 18.6371 15.1271 18.4895C15.2791 18.3419 15.3932 18.1205 15.3932 17.899C15.3932 17.6776 15.2791 17.4562 15.1271 17.3086Z" fill="#00BFA5"/>
</svg>
