<svg width="26" height="26" viewBox="0 0 26 26" fill="none" xmlns="http://www.w3.org/2000/svg">
<g clip-path="url(#clip0)">
<path d="M23.8333 0H2.16668C0.970633 0.00142188 0.00142188 0.970633 0 2.16668V23.8334C0.00142188 25.0294 0.970633 25.9986 2.16668 26H23.8334C25.0294 25.9986 25.9986 25.0294 26 23.8333V2.16668C25.9986 0.970633 25.0294 0.00142188 23.8333 0ZM25.1333 23.8333C25.1333 24.5513 24.5513 25.1333 23.8333 25.1333H2.16668C1.44874 25.1333 0.866684 24.5513 0.866684 23.8333V4.33332H25.1334V23.8333H25.1333ZM25.1333 3.46668H0.866684V2.16668C0.866684 1.44874 1.44874 0.866684 2.16668 0.866684H23.8334C24.5513 0.866684 25.1334 1.44874 25.1334 2.16668V3.46668H25.1333Z" fill="#818181"/>
<path d="M3.03338 1.73334H2.60006C2.36073 1.73334 2.16675 1.92732 2.16675 2.16665C2.16675 2.40599 2.36073 2.60002 2.60006 2.60002H3.03338C3.27271 2.60002 3.4667 2.40604 3.4667 2.1667C3.4667 1.92737 3.27271 1.73334 3.03338 1.73334Z" fill="#818181"/>
<path d="M4.93125 1.768C4.82664 1.72032 4.7065 1.72032 4.60194 1.768C4.54943 1.78999 4.50108 1.82076 4.45894 1.859C4.29136 2.02988 4.29136 2.30344 4.45894 2.47432C4.50108 2.51256 4.54943 2.54333 4.60194 2.56532C4.70685 2.61153 4.82634 2.61153 4.93125 2.56532C4.98376 2.54333 5.03211 2.51256 5.07426 2.47432C5.24183 2.30344 5.24183 2.02988 5.07426 1.859C5.03211 1.82076 4.98376 1.78999 4.93125 1.768Z" fill="#818181"/>
<path d="M6.66619 1.76391C6.50358 1.69642 6.3163 1.73395 6.19235 1.85897C6.15411 1.90112 6.12333 1.94946 6.10135 2.00197C6.05508 2.10688 6.05508 2.22637 6.10135 2.33129C6.12333 2.38379 6.15411 2.43214 6.19235 2.47429C6.36323 2.64186 6.63678 2.64186 6.80766 2.47429C6.8459 2.43214 6.87667 2.38379 6.89866 2.33129C6.92294 2.27984 6.93482 2.22348 6.93335 2.1666C6.93441 1.9906 6.82879 1.8314 6.66619 1.76391Z" fill="#818181"/>
<path d="M23.4 1.73334H8.66672C8.42738 1.73334 8.2334 1.92732 8.2334 2.16665C8.2334 2.40599 8.42738 2.59997 8.66672 2.59997H23.4C23.6394 2.59997 23.8333 2.40599 23.8333 2.16665C23.8333 1.92732 23.6394 1.73334 23.4 1.73334Z" fill="#818181"/>
<path d="M6.65304 20.6353C6.67274 20.6535 6.69422 20.6696 6.71718 20.6834C8.34832 22.4176 10.6236 23.4007 13.0044 23.4C15.3852 23.3992 17.6598 22.4147 19.2899 20.6795C19.3114 20.667 19.3317 20.6524 19.3506 20.6362C19.3648 20.6162 19.3773 20.5951 19.3879 20.5729C22.4287 17.2743 22.4287 12.1941 19.3879 8.89546L19.3861 8.8946C19.3756 8.87246 19.3631 8.85128 19.3489 8.83133C19.3291 8.81294 19.3075 8.79669 19.2843 8.78278C17.6539 7.05002 15.3803 6.0675 13.001 6.0675C10.6217 6.0675 8.34812 7.05002 6.71768 8.78278C6.69453 8.79664 6.67289 8.81294 6.65314 8.83133C6.63892 8.85128 6.62643 8.87246 6.61587 8.8946C3.57498 12.1932 3.57498 17.2735 6.61587 20.5721C6.62638 20.5942 6.63882 20.6154 6.65304 20.6353ZM15.3639 22.1637C16.03 21.3593 16.5314 20.4316 16.8394 19.4337V19.4324C17.3838 19.6874 17.8974 20.0034 18.3704 20.3744C17.5166 21.1908 16.4886 21.8026 15.3639 22.1637ZM18.9684 19.7448C18.3917 19.2822 17.7589 18.8942 17.0851 18.59C17.3638 17.4694 17.516 16.3212 17.5388 15.1667H20.778C20.6879 16.8487 20.0527 18.4557 18.9684 19.7448ZM20.778 14.3H17.5388C17.516 13.1455 17.3638 11.9972 17.0851 10.8767C17.7589 10.5728 18.3917 10.1851 18.9684 9.72274C20.0525 11.0116 20.6877 12.6182 20.778 14.3ZM18.3704 9.09092C17.8974 9.46193 17.3838 9.77799 16.8395 10.033C16.5316 9.03455 16.0302 8.10647 15.364 7.30164C16.4886 7.66275 17.5166 8.27456 18.3704 9.09092ZM13.4334 6.99401C14.4955 7.27219 15.4349 8.54924 16.0269 10.3571C15.1906 10.6454 14.3171 10.8116 13.4334 10.8506V6.99401ZM13.4334 11.7178C14.3976 11.6817 15.3516 11.5066 16.2657 11.1978C16.5115 12.2144 16.6479 13.2544 16.6726 14.3H13.4334V11.7178ZM13.4334 15.1667H16.6726C16.6479 16.212 16.5115 17.2517 16.2657 18.2681C15.3515 17.9596 14.3976 17.7847 13.4334 17.7489V15.1667ZM13.4334 18.616C14.3171 18.6552 15.1906 18.8215 16.0269 19.11C15.4349 20.9179 14.4955 22.1949 13.4334 22.4731V18.616ZM7.62977 20.3732C8.10289 20.0031 8.6165 19.6879 9.16072 19.4337V19.4324C9.46876 20.4304 9.97012 21.358 10.6362 22.1624C9.51157 21.8014 8.48355 21.1896 7.62977 20.3732ZM12.5668 22.4727C11.5047 22.1945 10.5652 20.9175 9.97327 19.1096C10.8095 18.8213 11.683 18.6551 12.5668 18.6161V22.4727ZM12.5668 17.7489C11.6026 17.785 10.6487 17.9601 9.7345 18.2689C9.48866 17.2523 9.35227 16.2123 9.32759 15.1667H12.5668V17.7489ZM12.5668 14.3H9.32759C9.35232 13.2547 9.48871 12.215 9.7345 11.1986C10.6487 11.5071 11.6026 11.682 12.5668 11.7178V14.3ZM12.5668 6.99355V10.8506C11.683 10.8115 10.8095 10.6451 9.97327 10.3566C10.5652 8.54883 11.5046 7.27178 12.5668 6.99355ZM10.6363 7.30037C9.96987 8.10556 9.4685 9.0341 9.16077 10.033V10.0316C8.61639 9.77662 8.10279 9.46061 7.62982 9.08955C8.48355 8.27324 9.51157 7.66143 10.6363 7.30037ZM7.03177 9.72183C7.60844 10.1844 8.24122 10.5725 8.91504 10.8766C8.63635 11.9972 8.48416 13.1455 8.46136 14.3H5.22218C5.31226 12.6179 5.94748 11.0109 7.03177 9.72183ZM8.46136 15.1667C8.48421 16.3212 8.6364 17.4695 8.91504 18.59C8.24127 18.8939 7.60849 19.2816 7.03177 19.744C5.94764 18.4551 5.31246 16.8484 5.22218 15.1666H8.46136V15.1667Z" fill="#818181"/>
</g>
<defs>
<clipPath id="clip0">
<rect width="26" height="26" fill="white"/>
</clipPath>
</defs>
</svg>
